<svg version="1.2" xmlns="http://www.w3.org/2000/svg" viewBox="0 0 573 159" width="573" height="159">
	<title>logo-text-svg</title>
	<defs>
		<clipPath clipPathUnits="userSpaceOnUse" id="cp1">
			<path d="m153.08 4.95v149.1h-148.16v-149.1z"/>
		</clipPath>
	</defs>
	<style>
		.s0 { fill: #ff22b9 } 
		.s1 { fill: #ffffff } 
	</style>
	<g id="Folder 1">
		<g id="Clip-Path" clip-path="url(#cp1)">
			<g>
				<path class="s0" d="m82.5 34.6c13.9 4.6 26.1 12.8 35.7 23.4 1.6-1.4 3.5-2.2 5.5-2.2q0.9 0 1.7 0.2c3.6-10 4.8-20.7 3.2-31.7q0-0.1 0-0.2c-6.5-5.9-14-10.6-22.3-13.9-8.8 6.6-16.9 14.8-23.8 24.4z"/>
				<path class="s0" d="m48.9 30.8c2.5-0.2 5.1-0.4 7.7-0.4 6.6 0 13 0.8 19.1 2.3 7.2-9.8 15.5-18 24.5-24.6-6.7-2.1-13.8-3.1-21.2-3.1-8.6 0-16.8 1.4-24.5 4.1-4.1 5.6-7.5 11.8-10.1 18.4 1.9 0.6 3.5 1.8 4.5 3.3z"/>
				<path class="s0" d="m40.6 43.9q-0.5 0.1-1 0.2c-0.8 4.7-1.3 9.5-1.3 14.4 0 14.3 3.6 27.6 9.9 39.3q2-0.2 4.2 0c0.7-14.7 4.4-29.9 11.2-44.6q3.4-7.1 7.4-13.5c-6-1.3-12.2-2.1-18.5-2.1-1.2 0-2.3 0.1-3.4 0.2-1.4 2.7-4.5 5.1-8.5 6.1z"/>
				<path class="s0" d="m77.8 41.6q-3.9 6.2-7.1 13c-7 15-10.6 30.5-11.3 45.5 2.7 1.4 4.9 3.5 6.4 5.8 20.3-4.3 37.3-15.3 48.6-29.9-0.6-1.8-0.9-3.8-0.9-5.9 0-1.7 0.2-3.3 0.6-4.8-9.7-10.9-22.2-19.1-36.3-23.7z"/>
				<path class="s0" d="m37 105.8c0.9-2 2.3-3.8 4-5.1-6.2-11.7-9.8-25-9.8-39.2 0-6.1 0.8-12.1 2-17.8-1.6-0.6-3-1.5-4.1-2.6-6.1 1.8-12 4.3-17.5 7.4-4.3 9.4-6.7 19.9-6.7 31 0 6.4 0.8 12.5 2.3 18.4 8.8 4.8 18.7 8.1 29.3 9.4q0.2-0.7 0.5-1.5z"/>
				<path class="s0" d="m124.8 85.5c-1.5 0-2.9-0.4-4.2-1.2-11.7 15.4-29.7 26.9-51.2 31-0.1 1.5-0.4 3-1 4.5q-0.5 1.1-1.1 2.1c14.3 12.7 33 20.6 53.5 20.9 5.9-3.9 11.2-8.6 15.7-14 0.2-2.1 0.3-4.2 0.3-6.3 0-13.6-3.3-26.3-9-37.6q-1.4 0.6-3 0.6z"/>
				<path class="s0" d="m61.3 125.6c2 10.2 5.6 19.7 10.6 28.1q3.5 0.3 7.1 0.3c13.1 0 25.3-3.4 35.9-9.3q-0.5 0-1 0c-20 0-38.3-7.2-52.6-19.1z"/>
				<path class="s0" d="m46.7 125.4c-5.2-2.2-8.9-6.5-10.2-11.1-9.9-1.8-19.2-5.3-27.5-10.3 8.7 24.9 30 43.8 56.2 48.7-4.7-7.7-8.2-16.5-10.4-25.8-2.6 0.1-5.4-0.4-8.1-1.5z"/>
				<path class="s0" d="m36.7 27.2q1-0.3 2.1-0.4c2.4-5.2 5.3-10.2 8.6-14.8-13.4 6.4-24.6 16.7-32.1 29.5q5.8-3.4 12.2-5.8c0.5-3.7 4.2-7.3 9.2-8.5z"/>
				<path class="s0" d="m153.1 79.5c0-19.9-7.8-38-20.5-51.4q0.5 2 0.8 4c1.4 9.7 0.6 19.4-2.2 28.4 1.7 2.5 2.7 5.9 2.7 9.6 0 3.2-0.8 6.1-2 8.5 5.1 10.8 7.9 22.9 7.9 35.6q0 4.3-0.4 8.5c8.6-12.2 13.7-27.1 13.7-43.2z"/>
				<path class="s0" d="m49.3 119.1c4.4 1.9 9.2 0.3 10.8-3.4 1.6-3.8-0.7-8.4-5.1-10.2-4.3-1.9-9.2-0.3-10.7 3.4-1.6 3.8 0.6 8.4 5 10.2z"/>
				<path class="s0" d="m123.7 76.2c-2.4 0-4.3-2.7-4.3-6.1 0-3.3 1.9-6.1 4.3-6.1 2.4 0 4.3 2.8 4.3 6.1 0 3.4-1.9 6.1-4.3 6.1z"/>
				<path class="s0" d="m39.5 39.1c2.6-0.7 4.3-2.8 3.9-4.7-0.5-2-3-3.1-5.6-2.4-2.6 0.6-4.3 2.7-3.8 4.6 0.4 2 2.9 3.1 5.5 2.5z"/>
			</g>
		</g>
	</g>
	<path fill-rule="evenodd" class="s1" d="m215.3 92.4c0 1.2-0.1 3.7-1.7 6.6-3.6 6.6-11.2 7.5-13.2 7.7-1.4 0.2-2.8 0.3-4.2 0.3-8.4 0-13.1-2.8-15.9-5-1.1-1-1.6-1.6-3.3-3.5l8-5c0.2 0.1 1 1.1 1.8 1.7 2.8 2.3 6.8 3.6 10.3 3.6 0.5 0 1.9 0 3.3-0.5 0.3 0 4.5-1.2 4.5-4.4 0-3.9-5.6-4-9.4-4.6-1.9-0.2-4-0.6-5.9-1-3.1-0.8-5.9-1.9-8-4.4-0.4-0.5-1.2-1.6-1.7-3.1-0.2-0.6-0.6-2-0.6-3.7 0-0.4 0.1-1.8 0.3-3 0.4-2.6 1.6-4.8 3.6-6.7 2.1-2 6.2-4.4 13.1-4.4 2.6 0 8.2 0.3 13.9 4.2 1.4 0.9 2.3 1.6 4.6 3.7l-7.7 5.6c-2.3-2.3-3.9-3.6-7.1-4.6-0.5-0.1-2.1-0.6-3.9-0.6-4.3 0-6.3 2.5-6.3 4.5 0 1.1 0.6 1.9 0.9 2.2 1.4 1.5 3.8 1.4 7.7 2 2.4 0.4 4.7 0.9 7 1.4 1.5 0.3 6.9 1.4 9.1 6.5 0.3 0.8 0.8 2.4 0.8 4.5zm34.2 13.7h-9.2v-16.3c0-2.4 0.2-5.5-2.1-7.1-0.8-0.5-1.7-0.7-2.6-0.7-0.4 0-1.6 0.1-2.7 0.8-2 1.4-2.2 3.5-2.2 7.8v15.5h-9.2v-42.1h9.2l0.1 14.3c0.1-0.2 0.9-1.1 1.7-1.7 2.9-2.2 5.8-2.5 7.1-2.5 4.1 0 6.5 2 7.5 3.1 0.7 0.8 1.2 1.7 1.5 2.5 0.6 1.4 0.9 3 0.9 5.9zm35.3 0h-9v-2.8c-0.6 0.5-1.2 0.9-1.9 1.4-1.1 0.7-3.8 2.3-7.6 2.3-5.6 0-8.2-3.1-9.2-5.1-0.7-1.4-1-2.9-1-4.4 0-5.6 5-8.3 6.4-8.9 2.3-1 6.5-1.8 12.4-2.9v-1.7c0-1.1-0.2-3.8-3.5-3.8-2.7 0-3.9 1.3-4.4 2.3-0.1 0.2-0.3 0.7-0.4 1.4h-9.2c0.1-1.3 0.2-4 2.5-6.3 2.6-2.5 6-3 7-3.2 1.8-0.2 3.3-0.2 4-0.2 4.4 0 10.3 1 12.4 5.5 0.3 0.8 0.6 1.7 0.6 3.4v18.2c0 2.7 0.1 3.7 0.9 4.8zm-9.9-14.9l-5.9 2q-0.5 0.2-1.1 0.4c-2.2 1-2.8 2.3-2.8 3.5 0 0.2 0 0.8 0.3 1.4 0.4 0.6 1.3 1.7 3.2 1.7 1.7 0 3.1-0.9 3.5-1.2 2.7-1.9 2.8-4.8 2.8-7.8zm35.2-8.4l-3.1 0.5c-0.3 0-1.7 0.2-2.8 0.6-2.5 0.9-2.9 2.4-2.9 4.7v17.5h-9.1v-31.1h8.9v3.3c0.7-0.7 1.6-1.5 3.6-2.4 2.5-1 4.2-1.1 5.4-1.2zm33.9 9.7h-22.2c0 0.3 0 1 0.1 1.8 0.7 3.7 3.3 5.9 7 5.9 0.5 0 1.7 0 3-0.5 3.1-1.1 4.5-4.2 4.9-5l6.9 3.6c-1.3 1.8-1.9 2.7-2.6 3.5-4.6 5.1-10.6 5.5-12.9 5.5-1 0-3.2-0.1-5.6-0.9-6.9-2.1-10.1-8.2-10.1-15.2 0-1.9 0.1-7.7 3.9-12.2 2-2.1 5.2-4.9 12-4.9 2.1 0 8.3 0.2 12.2 5.6 3.5 4.9 3.4 11.3 3.4 12.8zm-9.4-5.7c-0.2-1-0.3-4.2-3.4-5.6-1.3-0.6-2.3-0.6-2.8-0.6-3.7 0-5.3 2.7-5.8 3.8-0.3 0.5-0.5 1.2-0.7 2.4zm68.1-8.8c0 1.4-0.1 5-2.5 8.4-3.9 5.6-9.8 6-15.9 6h-7.1v13.7h-10.5v-42h20.9c3.9 0 7.7 0.4 10.9 3.2 0.4 0.4 1.2 1.1 1.9 2.1 0.9 1.4 2.3 4.4 2.3 8.6zm-10.4 0c0-2.1-0.6-3.1-1.1-3.9-1.7-2.3-4.7-2.3-7.2-2.3h-6.8v12.8h6.4c1.9 0 2.6 0 3.6-0.2 3.7-0.6 5.2-2.9 5.1-6.4zm33.3 4.8l-3.1 0.5c-0.3 0-1.7 0.2-2.8 0.6-2.5 0.8-2.9 2.4-2.9 4.7v17.5h-9.1v-31.1h8.9v3.3c0.7-0.7 1.6-1.5 3.6-2.4 2.5-1 4.2-1.1 5.4-1.2zm35.8 7.8c0 7-3.3 11.1-5.5 12.9-1.8 1.4-5.4 3.6-11.3 3.6-1.6 0-7.9-0.3-12.2-4.5-1.8-1.8-4.4-5.6-4.4-12.1 0-1.8 0.1-6.8 3.6-11.1 2.1-2.5 6.4-5.7 14.3-5.3 3.6 0.2 6.8 1 9.8 3.4 3.8 3.1 5.7 8.1 5.7 13.1zm-9.3 0.3c0-4.7-1.5-7.1-3.3-8.4-0.8-0.6-2.1-1.2-4.5-1.2-0.4 0-2.2 0.2-3.5 0.9-1.6 1-3.6 3.7-3.6 8.3 0 3 1 5.3 1.6 6.2 0.7 1.1 2.5 3.1 6 3.1 5 0 7.3-4.3 7.3-8.9zm60.5 15.2h-9.1v-16.3c0-3.2 0-5.1-0.8-6.4-0.7-1.2-2.2-1.8-3.5-1.8-0.7 0-2.9 0.2-4 2.2-0.7 1.3-0.7 2.6-0.7 5.4v16.9h-9.1v-18.4c0-3-0.4-4.3-1.8-5.2-0.8-0.6-1.7-0.8-2.7-0.8-0.4 0-1.6 0-2.6 0.8-1.9 1.4-2 3.9-2 5.9v17.7h-9v-31.1h9l0.1 3.2c0.5-0.6 0.9-1 1.6-1.6 1.1-0.9 3.4-2.4 7.2-2.4 0.7 0 3.9 0.1 6.2 1.5 0.9 0.6 1.7 1.4 2.5 2.1 1.1-0.9 1.5-1.2 2.2-1.6 1-0.7 3.6-2 7-2 1.1 0 5.4 0.1 8 3.4 1.5 1.8 1.5 3.8 1.5 8.3zm38.4-15.6c-0.1 5.3-1.8 8.8-2.9 10.6-1.7 2.6-3.9 4-4.9 4.4-1 0.5-2.9 1.2-5.8 1.2-3.2 0-4.9-1-7.6-2.7v12.9h-9.3v-41.9h8.2v3c0.5-0.6 0.7-0.9 1.3-1.4 1.2-0.9 3.6-2.3 7.4-2.3 1.8 0 6 0.2 9.4 3.9 3.1 3.3 4.2 7.9 4.2 12.3zm-8.9-0.2c0-0.9 0.2-4.9-2.1-7.6-0.7-0.8-1.7-1.5-2.7-1.8-0.6-0.2-1.1-0.2-1.4-0.2-3.4 0-6.5 3.1-6.5 9.9 0 0.6-0.1 4.4 1.6 7 0.5 0.6 1.1 1.2 1.8 1.6 0.4 0.3 1.5 0.9 2.9 0.9 3.2 0 4.4-2.3 4.9-3.3 0.8-1.3 1.5-3.1 1.5-6.5zm30.9-9h-6.1v14c0 1.2 0 2 0.3 2.5 0.5 1 1.9 1 2.1 1 1.1 0 2.2-0.1 3.2-0.1v7.1c-0.6 0.2-2.7 0.5-4.8 0.5-0.7 0-1.3 0-1.9 0-0.8-0.1-3.6 0-5.7-2-2.3-2-2.2-5.2-2.2-8.1v-14.9h-4.6v-5.6h4.6v-9.7h9v9.7h6.1z"/>
</svg>