<svg version="1.2" xmlns="http://www.w3.org/2000/svg" viewBox="0 0 140 140" width="140" height="140">
	<title>logo-svg</title>
	<defs>
		<clipPath clipPathUnits="userSpaceOnUse" id="cp1">
			<path d="m0 0h140v140h-140z"/>
		</clipPath>
	</defs>
	<style>
		.s0 { fill: #ff22b9 } 
	</style>
	<g id="Folder 1">
		<g id="Clip-Path" clip-path="url(#cp1)">
			<g>
				<path class="s0" d="m73.3 27.8c13.1 4.3 24.7 12 33.8 22 1.5-1.3 3.2-2.1 5.1-2.1q0.9 0 1.7 0.2c3.3-9.3 4.5-19.4 3-29.7q0-0.1 0-0.2c-6.2-5.5-13.3-10-21.1-13.1-8.3 6.2-16 13.9-22.5 22.9z"/>
				<path class="s0" d="m41.5 24.3c2.4-0.2 4.9-0.4 7.3-0.4 6.3 0 12.3 0.8 18.1 2.1 6.7-9.1 14.6-16.9 23.1-23.1-6.3-1.9-13-2.9-20-2.9-8.1 0-15.9 1.4-23.1 3.9-3.9 5.3-7.1 11.1-9.6 17.2 1.8 0.7 3.3 1.8 4.2 3.2z"/>
				<path class="s0" d="m33.8 36.5q-0.5 0.1-1 0.2c-0.8 4.4-1.2 9-1.2 13.6 0 13.4 3.4 25.9 9.3 36.9q1.9-0.2 3.9 0c0.7-13.8 4.2-28.1 10.7-41.9q3.1-6.7 6.9-12.6c-5.6-1.3-11.5-2-17.5-2-1.1 0-2.1 0.1-3.2 0.1-1.3 2.6-4.2 4.8-7.9 5.7z"/>
				<path class="s0" d="m68.8 34.4q-3.6 5.8-6.7 12.3c-6.6 14-10 28.6-10.6 42.6 2.5 1.4 4.6 3.3 6.1 5.5 19.1-4 35.2-14.4 45.9-28.1-0.6-1.7-0.9-3.5-0.9-5.5 0-1.6 0.2-3.1 0.6-4.6-9.2-10.1-21-17.9-34.4-22.2z"/>
				<path class="s0" d="m30.3 94.7c0.8-1.9 2.2-3.5 3.8-4.8-5.9-11-9.2-23.5-9.2-36.8 0-5.8 0.7-11.4 1.8-16.8-1.5-0.5-2.9-1.3-3.8-2.4-5.8 1.7-11.4 4.1-16.5 7-4.1 8.8-6.4 18.7-6.4 29.1 0 6 0.8 11.8 2.2 17.3 8.3 4.5 17.7 7.5 27.6 8.8q0.2-0.7 0.5-1.4z"/>
				<path class="s0" d="m113.2 75.7c-1.3 0-2.7-0.5-3.9-1.2-11 14.5-28.1 25.3-48.4 29.1 0 1.4-0.3 2.9-0.9 4.3q-0.4 1-1.1 1.9c13.6 12 31.2 19.3 50.6 19.6 5.6-3.6 10.5-8 14.8-13.1q0.3-2.9 0.3-5.9c0-12.8-3.1-24.7-8.5-35.4q-1.3 0.6-2.9 0.7z"/>
				<path class="s0" d="m53.2 113.3c2 9.5 5.4 18.5 10.1 26.4q3.3 0.3 6.7 0.3c12.3 0 23.9-3.2 34-8.8q-0.5 0-1 0c-18.9 0-36.3-6.7-49.8-17.9z"/>
				<path class="s0" d="m39.5 113.1c-5-2.1-8.4-6.1-9.6-10.4-9.4-1.7-18.2-5-26-9.7 8.1 23.4 28.3 41.1 53 45.8-4.4-7.3-7.7-15.5-9.7-24.3-2.5 0.1-5.2-0.3-7.7-1.4z"/>
				<path class="s0" d="m30 20.9q1-0.3 2-0.3c2.3-5 5-9.6 8.2-13.9-12.7 5.9-23.3 15.6-30.4 27.6q5.5-3.1 11.5-5.4c0.5-3.5 4-6.9 8.7-8z"/>
				<path class="s0" d="m140 70c0-18.7-7.4-35.7-19.3-48.2q0.4 1.8 0.7 3.7c1.3 9.1 0.5 18.2-2 26.7 1.5 2.3 2.5 5.5 2.5 9 0 3-0.7 5.7-1.9 7.9 4.8 10.2 7.5 21.5 7.5 33.5q0 4-0.4 7.9c8.1-11.4 12.9-25.4 12.9-40.5z"/>
				<path class="s0" d="m41.9 107.2c4.2 1.8 8.7 0.3 10.2-3.2 1.5-3.6-0.6-7.9-4.7-9.6-4.2-1.7-8.7-0.3-10.2 3.2-1.5 3.6 0.6 7.9 4.7 9.6z"/>
				<path class="s0" d="m112.2 66.9c2.3 0 4.1-2.6 4.1-5.7 0-3.2-1.8-5.7-4.1-5.7-2.2 0-4 2.5-4 5.7 0 3.1 1.8 5.7 4 5.7z"/>
				<path class="s0" d="m32.7 32c2.4-0.6 4.1-2.5 3.6-4.4-0.4-1.8-2.7-2.8-5.2-2.2-2.5 0.6-4.1 2.5-3.7 4.4 0.5 1.8 2.8 2.8 5.3 2.2z"/>
			</g>
		</g>
	</g>
</svg>